<?xml version="1.0" encoding="utf-8"?>
<!-- Generator: Adobe Illustrator 23.0.3, SVG Export Plug-In . SVG Version: 6.00 Build 0)  -->
<svg version="1.1" id="Capa_1" xmlns="http://www.w3.org/2000/svg" xmlns:xlink="http://www.w3.org/1999/xlink" x="0px" y="0px"
	 viewBox="0 0 82 12" style="enable-background:new 0 0 82 12;" xml:space="preserve">
<style type="text/css">
	.st0{fill:#964713;}
</style>
<g>
	<path class="st0" d="M21.1,3.7c-0.1-0.4-0.7-1.5-0.7-1.8c-0.2-0.2-0.4-0.7-0.5-1c-1.9,0-3.5,1-3.9,2.5c-0.6,1.9,1.4,2.8,1.1,3.6
		c-0.2,0.5-0.8,0.1-1.1,0l0,1.5c0,0.1,0,0.7,0,1c0,0.5,0,0.6,0.3,0.8c1.9,1.2,5.1,0.3,4.5-2.9c-0.3-1.5-1.5-2.1-1.2-3.1
		C19.8,3.6,20.4,3.6,21.1,3.7z"/>
	<path class="st0" d="M14,4c-0.2-0.2-0.2-0.8-0.3-1c-0.2-0.2-1.6-0.2-2-0.2C11,2.7,10.3,2.6,9.6,2.6c-0.3,0.8-2,6.7-2.3,7.2
		C7.2,9.6,7.1,8,7.1,7.7L4.5,7.9C4.4,7.5,4.4,5.8,4.3,5.2C4.3,4.3,4.1,3.3,4.1,2.5L1,2.5c0.1,1.3,0.2,2.6,0.3,4
		c0.1,1.3,0.1,2.7,0.1,4.1l0.5,0l5.3-0.2c0.1-0.2,0-0.1,0.1-0.2c0.1-0.1,0-0.1,0.1-0.2l3.5,1.1l0.6-1.1c0.2,0.2,0.5,0.8,0.6,1.1
		c0.3,0,3.2-1.4,3.4-1.5c-0.1-0.6-0.5-2-0.7-2.7C14.5,6.2,14,4.5,14,4z M10.9,6.9L11.6,5l0.8,1.9L10.9,6.9z"/>
	<path class="st0" d="M73.9,3.7c-0.7-0.9,1.2-0.6-4.3-1.1c-0.3,0.4-1.7,5.7-2.2,6.8c0,0,0,0.1-0.1,0.1c-0.1,0.1,0,0.1-0.1,0.1l0,0.4
		l3.6,1.1c0.1-0.4,0.4-1,0.6-1.3l0.6,1.2c0.4-0.1,2.6-1.2,3.4-1.5C75.3,8.7,73.7,4.3,73.9,3.7z M70.7,7.4l0.6-1.9l0.8,1.9L70.7,7.4z
		"/>
	<path class="st0" d="M39.2,8l0-0.7c0.4-0.2,1.2-0.1,1.6-0.2c0.1-0.3,0-1-0.1-1.4c-0.5-0.1-1.2,0.1-1.7,0L39,5l2.6-0.2
		c0.1-0.3,0-2-0.1-2.4c-0.6,0-2.1,0.1-2.8,0.2c-1,0.1-2,0-3,0.1c0,0.7,0.3,2.9,0.3,4c0,0.6,0.1,3.7,0.2,4l5.8-0.1
		c0.1-0.5-0.1-2.2-0.2-2.7L39.2,8z"/>
	<path class="st0" d="M34.1,3.4L34.1,3.4C34,3,34.1,2.9,34,2.7c0-0.3,0-0.5,0-0.8l-2.6-0.2c-0.2,0.5-0.8,2.5-1.1,2.7l-0.8-2.9
		c-0.2,0-2.6,0.4-2.7,0.5c-0.1,0.1-0.6,3.5-0.7,3.9c-0.1,0.7-0.3,1.3-0.4,1.9c-0.1,0.5-0.5,1.5-0.5,1.9c0.4,0.2,1.4,0.2,1.6,0.5
		l1,0.2C28,10,28.3,9.3,28.5,9c0,0,0,0,0.1,0.1l0.5,1.3l2.3-0.2L31.8,9c0.1-0.3,0-0.2,0.2-0.3l0.4,1.6c0.4-0.1,2.5-0.6,2.8-0.7
		l-0.7-2.9C34.3,6,34.1,4,34.1,3.4z"/>
	<path class="st0" d="M46.4,7.9c-0.1-0.5-0.3-5.6-0.5-5.3c0,0,0,0-0.1,0c-0.2-0.1-0.3,0-0.6,0l-2.4,0c0.1,1.3,0.2,2.6,0.3,3.9
		c0.1,1.4,0.1,2.7,0.1,4.1c1.4,0,2.9-0.1,4.3-0.1c2.2,0,1.5,0.4,1.4-2.8L46.4,7.9z"/>
	<path class="st0" d="M79.6,4.2c0.2-0.5,0.8-0.6,1.4-0.5c-0.1-0.4-0.5-0.9-0.4-1.3c-0.1-0.1,0,0-0.1-0.2c-0.1-0.2-0.4-1-0.6-1.3
		c-2.8,0-5.3,2.4-3.2,5c0.2,0.3,0.5,0.5,0.4,1c-0.6,0.5-0.6,0.1-1.2,0l0,1l0.1,2.1c1.6,1.3,4.5,0.7,4.8-1.4C81,6.2,79,5.4,79.6,4.2z
		"/>
	<path class="st0" d="M66.7,9l0-0.2l-0.1-1.2c-0.9-0.1-1.8,0.2-2.6,0.2c0.1-0.1,1.8-2.1,1.9-2.3c0.8-0.9,0.7-1.2,0.5-2.9
		c0,0,0-0.2,0-0.2c0,0,0,0,0-0.1c0,0,0,0,0-0.1l-0.1-0.1c-1.8,0.2-2.8,0.5-4.7,0.2c-0.2,0-0.4-0.1-0.7,0l-0.2,2.5
		c0.8,0.3,1.9,0.3,2.7,0.4c0,0.4-1.5,1.9-1.8,2.2c-0.5,0.5-0.9,0.7-0.9,1.2l0,1.6c0,0.1,0,0.2,0,0.3c0.1,0.2,0,0.2,0.5,0.2l5.3-0.2
		L66.7,9C66.7,9,66.7,9,66.7,9z"/>
	<path class="st0" d="M53.3,7.9c-0.1-0.5-0.3-5.7-0.5-5.3c0,0,0,0-0.1,0c-0.3-0.1-1.1,0-1.4,0c-0.5,0-1.1,0-1.6,0
		c0.1,1.3,0.2,2.6,0.3,3.9c0.1,1.3,0.1,2.8,0.1,4.1c0.2,0.1,5.5-0.1,5.8-0.2c0.1-0.6-0.1-1.9-0.1-2.7L53.3,7.9z"/>
	<path class="st0" d="M56.6,2.7c0,0.3,0.1,3.2,0.1,4c0,1.3-0.1,2.8-0.1,4.1l3-0.1l0-7.9C59.4,2.6,57.1,2.7,56.6,2.7z"/>
</g>
</svg>
